<mxfile host="65bd71144e">
    <diagram id="T7amHXIqnbaIaMJ4BcsS" name="Page-1">
        <mxGraphModel dx="988" dy="470" grid="1" gridSize="10" guides="1" tooltips="1" connect="1" arrows="1" fold="1" page="1" pageScale="1" pageWidth="850" pageHeight="1100" math="0" shadow="0">
            <root>
                <mxCell id="0"/>
                <mxCell id="1" parent="0"/>
                <mxCell id="3" value="&lt;font style=&quot;font-size: 14px;&quot;&gt;&lt;b&gt;&lt;u&gt;Modèle Conceptuel de Données&lt;br&gt;&lt;/u&gt;&lt;/b&gt;&lt;br&gt;&lt;/font&gt;" style="text;html=1;strokeColor=none;fillColor=none;align=center;verticalAlign=middle;whiteSpace=wrap;rounded=0;" parent="1" vertex="1">
                    <mxGeometry x="255" y="410" width="230" height="30" as="geometry"/>
                </mxCell>
                <mxCell id="4" value="Bassin" style="swimlane;whiteSpace=wrap;html=1;fontSize=14;" parent="1" vertex="1">
                    <mxGeometry x="400" y="470" width="140" height="105" as="geometry"/>
                </mxCell>
                <mxCell id="5" value="&lt;u&gt;id_bassin&lt;/u&gt;" style="text;html=1;align=center;verticalAlign=middle;resizable=0;points=[];autosize=1;strokeColor=none;fillColor=none;fontSize=14;" parent="4" vertex="1">
                    <mxGeometry x="30" y="40" width="80" height="30" as="geometry"/>
                </mxCell>
                <mxCell id="31" value="nom_bassin" style="text;html=1;align=center;verticalAlign=middle;resizable=0;points=[];autosize=1;strokeColor=none;fillColor=none;fontSize=12;" parent="4" vertex="1">
                    <mxGeometry x="30" y="65" width="90" height="30" as="geometry"/>
                </mxCell>
                <mxCell id="14" value="Piece" style="swimlane;whiteSpace=wrap;html=1;fontSize=14;" parent="1" vertex="1">
                    <mxGeometry x="10" y="470" width="160" height="105" as="geometry"/>
                </mxCell>
                <mxCell id="19" value="&lt;u&gt;id_piece&lt;/u&gt;" style="text;html=1;align=center;verticalAlign=middle;resizable=0;points=[];autosize=1;strokeColor=none;fillColor=none;fontSize=14;" parent="14" vertex="1">
                    <mxGeometry x="40" y="30" width="80" height="30" as="geometry"/>
                </mxCell>
                <mxCell id="32" value="nom_piece" style="text;html=1;align=center;verticalAlign=middle;resizable=0;points=[];autosize=1;strokeColor=none;fillColor=none;fontSize=12;" parent="14" vertex="1">
                    <mxGeometry x="40" y="60" width="80" height="30" as="geometry"/>
                </mxCell>
                <mxCell id="15" value="Genre" style="swimlane;whiteSpace=wrap;html=1;fontSize=14;" parent="1" vertex="1">
                    <mxGeometry x="100" y="870" width="160" height="100" as="geometry"/>
                </mxCell>
                <mxCell id="67" value="&lt;u&gt;id_genre&lt;/u&gt;" style="text;html=1;align=center;verticalAlign=middle;resizable=0;points=[];autosize=1;strokeColor=none;fillColor=none;fontSize=12;" parent="15" vertex="1">
                    <mxGeometry x="45" y="30" width="70" height="30" as="geometry"/>
                </mxCell>
                <mxCell id="68" value="nom_genre" style="text;html=1;align=center;verticalAlign=middle;resizable=0;points=[];autosize=1;strokeColor=none;fillColor=none;fontSize=12;" parent="15" vertex="1">
                    <mxGeometry x="40" y="60" width="80" height="30" as="geometry"/>
                </mxCell>
                <mxCell id="21" value="&lt;font style=&quot;font-size: 10px;&quot;&gt;CONCERNE&lt;/font&gt;" style="ellipse;whiteSpace=wrap;html=1;fontSize=14;" parent="1" vertex="1">
                    <mxGeometry x="230" y="482.5" width="120" height="80" as="geometry"/>
                </mxCell>
                <mxCell id="22" value="" style="endArrow=none;html=1;fontSize=14;entryX=0;entryY=0.5;entryDx=0;entryDy=0;exitX=1;exitY=0.5;exitDx=0;exitDy=0;" parent="1" source="14" target="21" edge="1">
                    <mxGeometry width="50" height="50" relative="1" as="geometry">
                        <mxPoint x="450" y="730" as="sourcePoint"/>
                        <mxPoint x="500" y="680" as="targetPoint"/>
                    </mxGeometry>
                </mxCell>
                <mxCell id="23" value="" style="endArrow=none;html=1;fontSize=14;entryX=1;entryY=0.5;entryDx=0;entryDy=0;exitX=0;exitY=0.5;exitDx=0;exitDy=0;" parent="1" source="4" target="21" edge="1">
                    <mxGeometry width="50" height="50" relative="1" as="geometry">
                        <mxPoint x="450" y="730" as="sourcePoint"/>
                        <mxPoint x="500" y="680" as="targetPoint"/>
                    </mxGeometry>
                </mxCell>
                <mxCell id="33" value="Suivi médical" style="swimlane;whiteSpace=wrap;html=1;fontSize=12;" parent="1" vertex="1">
                    <mxGeometry x="615" y="970" width="150" height="120" as="geometry"/>
                </mxCell>
                <mxCell id="16" value="&lt;u&gt;id_suivi&lt;/u&gt;" style="text;html=1;align=center;verticalAlign=middle;resizable=0;points=[];autosize=1;strokeColor=none;fillColor=none;fontSize=14;" parent="33" vertex="1">
                    <mxGeometry x="40" y="30" width="70" height="30" as="geometry"/>
                </mxCell>
                <mxCell id="17" value="date_soin" style="text;html=1;align=center;verticalAlign=middle;resizable=0;points=[];autosize=1;strokeColor=none;fillColor=none;fontSize=14;" parent="33" vertex="1">
                    <mxGeometry x="35" y="50" width="80" height="30" as="geometry"/>
                </mxCell>
                <mxCell id="18" value="nature_soin" style="text;html=1;align=center;verticalAlign=middle;resizable=0;points=[];autosize=1;strokeColor=none;fillColor=none;fontSize=14;" parent="33" vertex="1">
                    <mxGeometry x="25" y="80" width="100" height="30" as="geometry"/>
                </mxCell>
                <mxCell id="34" value="Famille" style="swimlane;whiteSpace=wrap;html=1;fontSize=12;" parent="1" vertex="1">
                    <mxGeometry x="100" y="730" width="170" height="120" as="geometry"/>
                </mxCell>
                <mxCell id="65" value="&lt;u&gt;id_famille&lt;/u&gt;" style="text;html=1;align=center;verticalAlign=middle;resizable=0;points=[];autosize=1;strokeColor=none;fillColor=none;fontSize=12;" parent="34" vertex="1">
                    <mxGeometry x="45" y="30" width="70" height="30" as="geometry"/>
                </mxCell>
                <mxCell id="66" value="nom_famille" style="text;html=1;align=center;verticalAlign=middle;resizable=0;points=[];autosize=1;strokeColor=none;fillColor=none;fontSize=12;" parent="34" vertex="1">
                    <mxGeometry x="35" y="70" width="90" height="30" as="geometry"/>
                </mxCell>
                <mxCell id="35" value="Ordre" style="swimlane;whiteSpace=wrap;html=1;fontSize=12;" parent="1" vertex="1">
                    <mxGeometry x="110" y="600" width="150" height="110" as="geometry"/>
                </mxCell>
                <mxCell id="64" value="nom_ordre" style="text;html=1;align=center;verticalAlign=middle;resizable=0;points=[];autosize=1;strokeColor=none;fillColor=none;fontSize=12;" parent="35" vertex="1">
                    <mxGeometry x="30" y="60" width="80" height="30" as="geometry"/>
                </mxCell>
                <mxCell id="37" value="Animal" style="swimlane;whiteSpace=wrap;html=1;fontSize=12;" parent="1" vertex="1">
                    <mxGeometry x="610" y="610" width="160" height="220" as="geometry"/>
                </mxCell>
                <mxCell id="39" value="date_depart" style="text;html=1;align=center;verticalAlign=middle;resizable=0;points=[];autosize=1;strokeColor=none;fillColor=none;fontSize=12;" parent="37" vertex="1">
                    <mxGeometry x="35" y="110" width="90" height="30" as="geometry"/>
                </mxCell>
                <mxCell id="38" value="&lt;u&gt;id_animal&lt;/u&gt;" style="text;html=1;align=center;verticalAlign=middle;resizable=0;points=[];autosize=1;strokeColor=none;fillColor=none;fontSize=12;" parent="37" vertex="1">
                    <mxGeometry x="40" y="35" width="70" height="30" as="geometry"/>
                </mxCell>
                <mxCell id="62" value="&lt;font style=&quot;font-size: 12px;&quot;&gt;nom_animal&lt;/font&gt;" style="text;html=1;align=center;verticalAlign=middle;resizable=0;points=[];autosize=1;strokeColor=none;fillColor=none;fontSize=10;" parent="37" vertex="1">
                    <mxGeometry x="35" y="70" width="90" height="30" as="geometry"/>
                </mxCell>
                <mxCell id="102" value="date_arrivee" style="text;html=1;align=center;verticalAlign=middle;resizable=0;points=[];autosize=1;strokeColor=none;fillColor=none;fontSize=12;" parent="37" vertex="1">
                    <mxGeometry x="35" y="150" width="90" height="30" as="geometry"/>
                </mxCell>
                <mxCell id="40" value="dispose" style="ellipse;whiteSpace=wrap;html=1;fontSize=12;" parent="1" vertex="1">
                    <mxGeometry x="630" y="482.5" width="120" height="80" as="geometry"/>
                </mxCell>
                <mxCell id="41" value="" style="endArrow=none;html=1;fontSize=12;entryX=1;entryY=0.5;entryDx=0;entryDy=0;exitX=0;exitY=0.5;exitDx=0;exitDy=0;" parent="1" source="40" target="4" edge="1">
                    <mxGeometry width="50" height="50" relative="1" as="geometry">
                        <mxPoint x="460" y="630" as="sourcePoint"/>
                        <mxPoint x="510" y="580" as="targetPoint"/>
                    </mxGeometry>
                </mxCell>
                <mxCell id="42" value="" style="endArrow=none;html=1;fontSize=12;entryX=0.5;entryY=1;entryDx=0;entryDy=0;" parent="1" source="37" target="40" edge="1">
                    <mxGeometry width="50" height="50" relative="1" as="geometry">
                        <mxPoint x="460" y="630" as="sourcePoint"/>
                        <mxPoint x="510" y="580" as="targetPoint"/>
                    </mxGeometry>
                </mxCell>
                <mxCell id="43" value="avoir" style="ellipse;whiteSpace=wrap;html=1;fontSize=10;" parent="1" vertex="1">
                    <mxGeometry x="390" y="620" width="100" height="60" as="geometry"/>
                </mxCell>
                <mxCell id="44" value="avoir" style="ellipse;whiteSpace=wrap;html=1;fontSize=10;" parent="1" vertex="1">
                    <mxGeometry x="370" y="700" width="100" height="60" as="geometry"/>
                </mxCell>
                <mxCell id="45" value="avoir" style="ellipse;whiteSpace=wrap;html=1;fontSize=10;" parent="1" vertex="1">
                    <mxGeometry x="375" y="820" width="100" height="60" as="geometry"/>
                </mxCell>
                <mxCell id="46" value="avoir" style="ellipse;whiteSpace=wrap;html=1;fontSize=10;" parent="1" vertex="1">
                    <mxGeometry x="640" y="870" width="100" height="60" as="geometry"/>
                </mxCell>
                <mxCell id="47" value="" style="endArrow=none;html=1;fontSize=10;entryX=0.5;entryY=1;entryDx=0;entryDy=0;exitX=0.5;exitY=0;exitDx=0;exitDy=0;" parent="1" source="33" target="46" edge="1">
                    <mxGeometry width="50" height="50" relative="1" as="geometry">
                        <mxPoint x="460" y="940" as="sourcePoint"/>
                        <mxPoint x="510" y="890" as="targetPoint"/>
                    </mxGeometry>
                </mxCell>
                <mxCell id="48" value="" style="endArrow=none;html=1;fontSize=10;entryX=0.5;entryY=1;entryDx=0;entryDy=0;" parent="1" source="46" target="37" edge="1">
                    <mxGeometry width="50" height="50" relative="1" as="geometry">
                        <mxPoint x="460" y="940" as="sourcePoint"/>
                        <mxPoint x="510" y="890" as="targetPoint"/>
                    </mxGeometry>
                </mxCell>
                <mxCell id="49" value="" style="endArrow=none;html=1;fontSize=10;entryX=0;entryY=0.25;entryDx=0;entryDy=0;exitX=1;exitY=0.5;exitDx=0;exitDy=0;" parent="1" source="43" target="37" edge="1">
                    <mxGeometry width="50" height="50" relative="1" as="geometry">
                        <mxPoint x="460" y="780" as="sourcePoint"/>
                        <mxPoint x="510" y="730" as="targetPoint"/>
                        <Array as="points">
                            <mxPoint x="560" y="650"/>
                        </Array>
                    </mxGeometry>
                </mxCell>
                <mxCell id="50" value="" style="endArrow=none;html=1;fontSize=10;entryX=0;entryY=0.5;entryDx=0;entryDy=0;exitX=1;exitY=0.5;exitDx=0;exitDy=0;" parent="1" source="35" target="43" edge="1">
                    <mxGeometry width="50" height="50" relative="1" as="geometry">
                        <mxPoint x="460" y="780" as="sourcePoint"/>
                        <mxPoint x="510" y="730" as="targetPoint"/>
                        <Array as="points">
                            <mxPoint x="280" y="650"/>
                        </Array>
                    </mxGeometry>
                </mxCell>
                <mxCell id="51" value="" style="endArrow=none;html=1;fontSize=10;entryX=0;entryY=1;entryDx=0;entryDy=0;exitX=1;exitY=0.5;exitDx=0;exitDy=0;" parent="1" source="34" target="44" edge="1">
                    <mxGeometry width="50" height="50" relative="1" as="geometry">
                        <mxPoint x="460" y="780" as="sourcePoint"/>
                        <mxPoint x="510" y="730" as="targetPoint"/>
                    </mxGeometry>
                </mxCell>
                <mxCell id="54" value="" style="endArrow=none;html=1;fontSize=10;exitX=1;exitY=0.25;exitDx=0;exitDy=0;entryX=0;entryY=1;entryDx=0;entryDy=0;" parent="1" source="15" target="45" edge="1">
                    <mxGeometry width="50" height="50" relative="1" as="geometry">
                        <mxPoint x="460" y="780" as="sourcePoint"/>
                        <mxPoint x="510" y="730" as="targetPoint"/>
                    </mxGeometry>
                </mxCell>
                <mxCell id="55" value="0,N" style="text;html=1;align=center;verticalAlign=middle;resizable=0;points=[];autosize=1;strokeColor=none;fillColor=none;fontSize=10;" parent="1" vertex="1">
                    <mxGeometry x="170" y="495" width="40" height="30" as="geometry"/>
                </mxCell>
                <mxCell id="56" value="1,1" style="text;html=1;align=center;verticalAlign=middle;resizable=0;points=[];autosize=1;strokeColor=none;fillColor=none;fontSize=10;" parent="1" vertex="1">
                    <mxGeometry x="360" y="495" width="40" height="30" as="geometry"/>
                </mxCell>
                <mxCell id="58" value="0,N" style="text;html=1;align=center;verticalAlign=middle;resizable=0;points=[];autosize=1;strokeColor=none;fillColor=none;fontSize=10;" parent="1" vertex="1">
                    <mxGeometry x="540" y="495" width="40" height="30" as="geometry"/>
                </mxCell>
                <mxCell id="59" value="1,1" style="text;html=1;align=center;verticalAlign=middle;resizable=0;points=[];autosize=1;strokeColor=none;fillColor=none;fontSize=10;" parent="1" vertex="1">
                    <mxGeometry x="690" y="585" width="40" height="30" as="geometry"/>
                </mxCell>
                <mxCell id="60" value="1,1" style="text;html=1;align=center;verticalAlign=middle;resizable=0;points=[];autosize=1;strokeColor=none;fillColor=none;fontSize=10;" parent="1" vertex="1">
                    <mxGeometry x="570" y="630" width="40" height="30" as="geometry"/>
                </mxCell>
                <mxCell id="61" value="1,N" style="text;html=1;align=center;verticalAlign=middle;resizable=0;points=[];autosize=1;strokeColor=none;fillColor=none;fontSize=10;" parent="1" vertex="1">
                    <mxGeometry x="260" y="620" width="40" height="30" as="geometry"/>
                </mxCell>
                <mxCell id="63" value="&lt;u&gt;id_ordre&lt;/u&gt;" style="text;html=1;align=center;verticalAlign=middle;resizable=0;points=[];autosize=1;strokeColor=none;fillColor=none;fontSize=12;" parent="1" vertex="1">
                    <mxGeometry x="145" y="625" width="70" height="30" as="geometry"/>
                </mxCell>
                <mxCell id="69" value="1,N" style="text;html=1;align=center;verticalAlign=middle;resizable=0;points=[];autosize=1;strokeColor=none;fillColor=none;fontSize=10;" parent="1" vertex="1">
                    <mxGeometry x="270" y="750" width="40" height="30" as="geometry"/>
                </mxCell>
                <mxCell id="70" value="1,N" style="text;html=1;align=center;verticalAlign=middle;resizable=0;points=[];autosize=1;strokeColor=none;fillColor=none;fontSize=10;" parent="1" vertex="1">
                    <mxGeometry x="260" y="870" width="40" height="30" as="geometry"/>
                </mxCell>
                <mxCell id="72" value="1,1" style="text;html=1;align=center;verticalAlign=middle;resizable=0;points=[];autosize=1;strokeColor=none;fillColor=none;fontSize=10;" parent="1" vertex="1">
                    <mxGeometry x="265" y="790" width="40" height="30" as="geometry"/>
                </mxCell>
                <mxCell id="73" value="&lt;font style=&quot;font-size: 10px;&quot;&gt;0,N&lt;/font&gt;" style="text;html=1;align=center;verticalAlign=middle;resizable=0;points=[];autosize=1;strokeColor=none;fillColor=none;fontSize=12;" parent="1" vertex="1">
                    <mxGeometry x="650" y="825" width="40" height="30" as="geometry"/>
                </mxCell>
                <mxCell id="74" value="1,1" style="text;html=1;align=center;verticalAlign=middle;resizable=0;points=[];autosize=1;strokeColor=none;fillColor=none;fontSize=10;" parent="1" vertex="1">
                    <mxGeometry x="650" y="945" width="40" height="30" as="geometry"/>
                </mxCell>
                <mxCell id="75" value="espece" style="swimlane;whiteSpace=wrap;html=1;fontSize=14;" parent="1" vertex="1">
                    <mxGeometry x="290" y="990" width="160" height="100" as="geometry"/>
                </mxCell>
                <mxCell id="76" value="&lt;u&gt;id_espece&lt;/u&gt;" style="text;html=1;align=center;verticalAlign=middle;resizable=0;points=[];autosize=1;strokeColor=none;fillColor=none;fontSize=12;" parent="75" vertex="1">
                    <mxGeometry x="40" y="30" width="80" height="30" as="geometry"/>
                </mxCell>
                <mxCell id="77" value="nom_espece" style="text;html=1;align=center;verticalAlign=middle;resizable=0;points=[];autosize=1;strokeColor=none;fillColor=none;fontSize=12;" parent="75" vertex="1">
                    <mxGeometry x="35" y="60" width="90" height="30" as="geometry"/>
                </mxCell>
                <mxCell id="78" value="appartenir" style="ellipse;whiteSpace=wrap;html=1;fontSize=10;" parent="1" vertex="1">
                    <mxGeometry x="470" y="900" width="100" height="60" as="geometry"/>
                </mxCell>
                <mxCell id="79" value="" style="endArrow=none;html=1;fontSize=10;entryX=1;entryY=0.5;entryDx=0;entryDy=0;exitX=0;exitY=0;exitDx=0;exitDy=0;" parent="1" source="78" target="15" edge="1">
                    <mxGeometry width="50" height="50" relative="1" as="geometry">
                        <mxPoint x="460" y="890" as="sourcePoint"/>
                        <mxPoint x="510" y="840" as="targetPoint"/>
                    </mxGeometry>
                </mxCell>
                <mxCell id="80" value="" style="endArrow=none;html=1;fontSize=10;entryX=0;entryY=1;entryDx=0;entryDy=0;exitX=0.5;exitY=0;exitDx=0;exitDy=0;" parent="1" source="75" target="78" edge="1">
                    <mxGeometry width="50" height="50" relative="1" as="geometry">
                        <mxPoint x="460" y="890" as="sourcePoint"/>
                        <mxPoint x="510" y="840" as="targetPoint"/>
                    </mxGeometry>
                </mxCell>
                <mxCell id="81" value="&lt;span style=&quot;font-size: 14px;&quot;&gt;&lt;b&gt;&lt;u&gt;Graphe de dépendance fonctionnelle&amp;nbsp;&lt;/u&gt;&lt;/b&gt;&lt;/span&gt;" style="text;html=1;align=center;verticalAlign=middle;resizable=0;points=[];autosize=1;strokeColor=none;fillColor=none;fontSize=10;" parent="1" vertex="1">
                    <mxGeometry x="225" y="15" width="270" height="30" as="geometry"/>
                </mxCell>
                <mxCell id="82" value="&lt;font style=&quot;font-size: 12px;&quot;&gt;id_animal&lt;/font&gt;" style="text;html=1;align=center;verticalAlign=middle;resizable=0;points=[];autosize=1;strokeColor=none;fillColor=none;fontSize=14;" parent="1" vertex="1">
                    <mxGeometry x="590" y="40" width="70" height="30" as="geometry"/>
                </mxCell>
                <mxCell id="84" value="id_ordre" style="text;html=1;align=center;verticalAlign=middle;resizable=0;points=[];autosize=1;strokeColor=none;fillColor=none;fontSize=12;" parent="1" vertex="1">
                    <mxGeometry x="485" y="100" width="70" height="30" as="geometry"/>
                </mxCell>
                <mxCell id="85" value="id_famille" style="text;html=1;align=center;verticalAlign=middle;resizable=0;points=[];autosize=1;strokeColor=none;fillColor=none;fontSize=12;" parent="1" vertex="1">
                    <mxGeometry x="430" y="160" width="70" height="30" as="geometry"/>
                </mxCell>
                <mxCell id="86" value="id_genre" style="text;html=1;align=center;verticalAlign=middle;resizable=0;points=[];autosize=1;strokeColor=none;fillColor=none;fontSize=12;" parent="1" vertex="1">
                    <mxGeometry x="345" y="220" width="70" height="30" as="geometry"/>
                </mxCell>
                <mxCell id="87" value="id_espece" style="text;html=1;align=center;verticalAlign=middle;resizable=0;points=[];autosize=1;strokeColor=none;fillColor=none;fontSize=12;" parent="1" vertex="1">
                    <mxGeometry x="270" y="280" width="80" height="30" as="geometry"/>
                </mxCell>
                <mxCell id="88" value="" style="endArrow=classic;html=1;fontSize=12;" parent="1" target="84" edge="1">
                    <mxGeometry width="50" height="50" relative="1" as="geometry">
                        <mxPoint x="590" y="70" as="sourcePoint"/>
                        <mxPoint x="530" y="110" as="targetPoint"/>
                    </mxGeometry>
                </mxCell>
                <mxCell id="89" value="" style="endArrow=classic;html=1;fontSize=12;exitX=0.408;exitY=0.981;exitDx=0;exitDy=0;exitPerimeter=0;entryX=0.547;entryY=0.009;entryDx=0;entryDy=0;entryPerimeter=0;" parent="1" target="85" edge="1">
                    <mxGeometry width="50" height="50" relative="1" as="geometry">
                        <mxPoint x="505.81999999999994" y="129.99999999999994" as="sourcePoint"/>
                        <mxPoint x="450.0034064579738" y="155.57" as="targetPoint"/>
                    </mxGeometry>
                </mxCell>
                <mxCell id="90" value="" style="endArrow=classic;html=1;fontSize=12;exitX=0.408;exitY=0.981;exitDx=0;exitDy=0;exitPerimeter=0;entryX=0.547;entryY=0.009;entryDx=0;entryDy=0;entryPerimeter=0;" parent="1" edge="1">
                    <mxGeometry width="50" height="50" relative="1" as="geometry">
                        <mxPoint x="437.5299999999999" y="190" as="sourcePoint"/>
                        <mxPoint x="389.99999999999994" y="220.26999999999998" as="targetPoint"/>
                    </mxGeometry>
                </mxCell>
                <mxCell id="91" value="" style="endArrow=classic;html=1;fontSize=12;" parent="1" edge="1">
                    <mxGeometry width="50" height="50" relative="1" as="geometry">
                        <mxPoint x="360" y="250" as="sourcePoint"/>
                        <mxPoint x="320" y="280" as="targetPoint"/>
                    </mxGeometry>
                </mxCell>
                <mxCell id="92" value="" style="endArrow=classic;html=1;fontSize=12;" parent="1" edge="1">
                    <mxGeometry width="50" height="50" relative="1" as="geometry">
                        <mxPoint x="309.5" y="310" as="sourcePoint"/>
                        <mxPoint x="309.68" y="340" as="targetPoint"/>
                    </mxGeometry>
                </mxCell>
                <mxCell id="93" value="nom_espece" style="text;html=1;align=center;verticalAlign=middle;resizable=0;points=[];autosize=1;strokeColor=none;fillColor=none;fontSize=12;" parent="1" vertex="1">
                    <mxGeometry x="265" y="350" width="90" height="30" as="geometry"/>
                </mxCell>
                <mxCell id="94" value="" style="endArrow=classic;html=1;fontSize=12;" parent="1" edge="1">
                    <mxGeometry width="50" height="50" relative="1" as="geometry">
                        <mxPoint x="379.49999999999994" y="250" as="sourcePoint"/>
                        <mxPoint x="379.68" y="280" as="targetPoint"/>
                    </mxGeometry>
                </mxCell>
                <mxCell id="95" value="nom_genre" style="text;html=1;align=center;verticalAlign=middle;resizable=0;points=[];autosize=1;strokeColor=none;fillColor=none;fontSize=12;" parent="1" vertex="1">
                    <mxGeometry x="350" y="280" width="80" height="30" as="geometry"/>
                </mxCell>
                <mxCell id="96" value="" style="endArrow=classic;html=1;fontSize=12;" parent="1" edge="1">
                    <mxGeometry width="50" height="50" relative="1" as="geometry">
                        <mxPoint x="468.99999999999994" y="190" as="sourcePoint"/>
                        <mxPoint x="469.18" y="220" as="targetPoint"/>
                    </mxGeometry>
                </mxCell>
                <mxCell id="97" value="nom_famille" style="text;html=1;align=center;verticalAlign=middle;resizable=0;points=[];autosize=1;strokeColor=none;fillColor=none;fontSize=12;" parent="1" vertex="1">
                    <mxGeometry x="430" y="220" width="90" height="30" as="geometry"/>
                </mxCell>
                <mxCell id="98" value="" style="endArrow=classic;html=1;fontSize=12;" parent="1" edge="1">
                    <mxGeometry width="50" height="50" relative="1" as="geometry">
                        <mxPoint x="534.5" y="130" as="sourcePoint"/>
                        <mxPoint x="534.6800000000001" y="160" as="targetPoint"/>
                    </mxGeometry>
                </mxCell>
                <mxCell id="99" value="nom_ordre" style="text;html=1;align=center;verticalAlign=middle;resizable=0;points=[];autosize=1;strokeColor=none;fillColor=none;fontSize=12;" parent="1" vertex="1">
                    <mxGeometry x="490" y="155" width="80" height="30" as="geometry"/>
                </mxCell>
                <mxCell id="100" value="" style="endArrow=classic;html=1;fontSize=12;" parent="1" edge="1">
                    <mxGeometry width="50" height="50" relative="1" as="geometry">
                        <mxPoint x="604.5" y="70" as="sourcePoint"/>
                        <mxPoint x="604.6800000000001" y="100" as="targetPoint"/>
                    </mxGeometry>
                </mxCell>
                <mxCell id="101" value="nom_animal" style="text;html=1;align=center;verticalAlign=middle;resizable=0;points=[];autosize=1;strokeColor=none;fillColor=none;fontSize=12;" parent="1" vertex="1">
                    <mxGeometry x="540" y="100" width="90" height="30" as="geometry"/>
                </mxCell>
                <mxCell id="103" value="" style="endArrow=classic;html=1;fontSize=12;exitX=0.942;exitY=1.023;exitDx=0;exitDy=0;exitPerimeter=0;" parent="1" source="82" edge="1">
                    <mxGeometry width="50" height="50" relative="1" as="geometry">
                        <mxPoint x="650" y="70" as="sourcePoint"/>
                        <mxPoint x="710" y="100" as="targetPoint"/>
                    </mxGeometry>
                </mxCell>
                <mxCell id="104" value="" style="endArrow=classic;html=1;fontSize=12;entryX=0.254;entryY=0.018;entryDx=0;entryDy=0;entryPerimeter=0;" parent="1" target="105" edge="1">
                    <mxGeometry width="50" height="50" relative="1" as="geometry">
                        <mxPoint x="630" y="70" as="sourcePoint"/>
                        <mxPoint x="660" y="100" as="targetPoint"/>
                    </mxGeometry>
                </mxCell>
                <mxCell id="105" value="date_depart" style="text;html=1;align=center;verticalAlign=middle;resizable=0;points=[];autosize=1;strokeColor=none;fillColor=none;fontSize=12;" parent="1" vertex="1">
                    <mxGeometry x="615" y="100" width="90" height="30" as="geometry"/>
                </mxCell>
                <mxCell id="106" value="date_arrivee" style="text;html=1;align=center;verticalAlign=middle;resizable=0;points=[];autosize=1;strokeColor=none;fillColor=none;fontSize=12;" parent="1" vertex="1">
                    <mxGeometry x="695" y="100" width="90" height="30" as="geometry"/>
                </mxCell>
                <mxCell id="107" value="" style="endArrow=classic;html=1;fontSize=12;entryX=1.011;entryY=0.217;entryDx=0;entryDy=0;entryPerimeter=0;" parent="1" target="108" edge="1">
                    <mxGeometry width="50" height="50" relative="1" as="geometry">
                        <mxPoint x="570" y="60" as="sourcePoint"/>
                        <mxPoint x="150" y="120" as="targetPoint"/>
                    </mxGeometry>
                </mxCell>
                <mxCell id="108" value="id_bassin" style="text;html=1;align=center;verticalAlign=middle;resizable=0;points=[];autosize=1;strokeColor=none;fillColor=none;fontSize=12;" parent="1" vertex="1">
                    <mxGeometry x="100" y="160" width="70" height="30" as="geometry"/>
                </mxCell>
                <mxCell id="109" value="" style="endArrow=classic;html=1;fontSize=12;" parent="1" edge="1">
                    <mxGeometry width="50" height="50" relative="1" as="geometry">
                        <mxPoint x="130" y="190" as="sourcePoint"/>
                        <mxPoint x="130" y="250" as="targetPoint"/>
                    </mxGeometry>
                </mxCell>
                <mxCell id="110" value="id_piece" style="text;html=1;align=center;verticalAlign=middle;resizable=0;points=[];autosize=1;strokeColor=none;fillColor=none;fontSize=12;" parent="1" vertex="1">
                    <mxGeometry x="95" y="250" width="70" height="30" as="geometry"/>
                </mxCell>
                <mxCell id="111" value="&lt;font style=&quot;font-size: 14px;&quot;&gt;&lt;b&gt;&lt;u&gt;Modèle Logique des données&lt;/u&gt;&lt;/b&gt;&lt;/font&gt;" style="text;html=1;align=center;verticalAlign=middle;resizable=0;points=[];autosize=1;strokeColor=none;fillColor=none;fontSize=12;" parent="1" vertex="1">
                    <mxGeometry x="280" y="1160" width="220" height="30" as="geometry"/>
                </mxCell>
                <mxCell id="112" value="Bassin" style="swimlane;whiteSpace=wrap;html=1;fontSize=14;" parent="1" vertex="1">
                    <mxGeometry x="330" y="1217.5" width="140" height="130" as="geometry"/>
                </mxCell>
                <mxCell id="113" value="&lt;u&gt;id_bassin&lt;/u&gt;" style="text;html=1;align=center;verticalAlign=middle;resizable=0;points=[];autosize=1;strokeColor=none;fillColor=none;fontSize=14;" parent="112" vertex="1">
                    <mxGeometry x="30" y="40" width="80" height="30" as="geometry"/>
                </mxCell>
                <mxCell id="114" value="nom_bassin" style="text;html=1;align=center;verticalAlign=middle;resizable=0;points=[];autosize=1;strokeColor=none;fillColor=none;fontSize=12;" parent="112" vertex="1">
                    <mxGeometry x="30" y="65" width="90" height="30" as="geometry"/>
                </mxCell>
                <mxCell id="172" value="&lt;font style=&quot;font-size: 12px;&quot;&gt;#id_piece&lt;/font&gt;" style="text;html=1;align=center;verticalAlign=middle;resizable=0;points=[];autosize=1;strokeColor=none;fillColor=none;fontSize=14;" parent="112" vertex="1">
                    <mxGeometry x="35" y="95" width="70" height="30" as="geometry"/>
                </mxCell>
                <mxCell id="115" value="Piece" style="swimlane;whiteSpace=wrap;html=1;fontSize=14;" parent="1" vertex="1">
                    <mxGeometry x="50" y="1230" width="160" height="105" as="geometry"/>
                </mxCell>
                <mxCell id="116" value="&lt;u&gt;id_piece&lt;/u&gt;" style="text;html=1;align=center;verticalAlign=middle;resizable=0;points=[];autosize=1;strokeColor=none;fillColor=none;fontSize=14;" parent="115" vertex="1">
                    <mxGeometry x="40" y="30" width="80" height="30" as="geometry"/>
                </mxCell>
                <mxCell id="117" value="nom_piece" style="text;html=1;align=center;verticalAlign=middle;resizable=0;points=[];autosize=1;strokeColor=none;fillColor=none;fontSize=12;" parent="115" vertex="1">
                    <mxGeometry x="40" y="60" width="80" height="30" as="geometry"/>
                </mxCell>
                <mxCell id="118" value="Genre" style="swimlane;whiteSpace=wrap;html=1;fontSize=14;" parent="1" vertex="1">
                    <mxGeometry x="150" y="1660" width="160" height="110" as="geometry"/>
                </mxCell>
                <mxCell id="119" value="&lt;u&gt;id_genre&lt;/u&gt;" style="text;html=1;align=center;verticalAlign=middle;resizable=0;points=[];autosize=1;strokeColor=none;fillColor=none;fontSize=12;" parent="118" vertex="1">
                    <mxGeometry x="50" y="20" width="70" height="30" as="geometry"/>
                </mxCell>
                <mxCell id="120" value="nom_genre" style="text;html=1;align=center;verticalAlign=middle;resizable=0;points=[];autosize=1;strokeColor=none;fillColor=none;fontSize=12;" parent="118" vertex="1">
                    <mxGeometry x="45" y="50" width="80" height="30" as="geometry"/>
                </mxCell>
                <mxCell id="196" value="#id_espece" style="text;html=1;align=center;verticalAlign=middle;resizable=0;points=[];autosize=1;strokeColor=none;fillColor=none;" vertex="1" parent="118">
                    <mxGeometry x="45" y="80" width="80" height="30" as="geometry"/>
                </mxCell>
                <mxCell id="124" value="Suivi médical" style="swimlane;whiteSpace=wrap;html=1;fontSize=12;" parent="1" vertex="1">
                    <mxGeometry x="620" y="1730" width="150" height="160" as="geometry"/>
                </mxCell>
                <mxCell id="125" value="&lt;u&gt;id_suivi&lt;/u&gt;" style="text;html=1;align=center;verticalAlign=middle;resizable=0;points=[];autosize=1;strokeColor=none;fillColor=none;fontSize=14;" parent="124" vertex="1">
                    <mxGeometry x="40" y="30" width="70" height="30" as="geometry"/>
                </mxCell>
                <mxCell id="126" value="date_soin" style="text;html=1;align=center;verticalAlign=middle;resizable=0;points=[];autosize=1;strokeColor=none;fillColor=none;fontSize=14;" parent="124" vertex="1">
                    <mxGeometry x="35" y="50" width="80" height="30" as="geometry"/>
                </mxCell>
                <mxCell id="127" value="nature_soin" style="text;html=1;align=center;verticalAlign=middle;resizable=0;points=[];autosize=1;strokeColor=none;fillColor=none;fontSize=14;" parent="124" vertex="1">
                    <mxGeometry x="25" y="80" width="100" height="30" as="geometry"/>
                </mxCell>
                <mxCell id="181" value="&lt;font style=&quot;font-size: 14px;&quot;&gt;#id_animal&lt;/font&gt;" style="text;html=1;align=center;verticalAlign=middle;resizable=0;points=[];autosize=1;strokeColor=none;fillColor=none;fontSize=12;" parent="124" vertex="1">
                    <mxGeometry x="30" y="110" width="90" height="30" as="geometry"/>
                </mxCell>
                <mxCell id="197" style="edgeStyle=none;html=1;exitX=0.5;exitY=1;exitDx=0;exitDy=0;" edge="1" parent="1" source="128">
                    <mxGeometry relative="1" as="geometry">
                        <mxPoint x="105" y="1630" as="targetPoint"/>
                    </mxGeometry>
                </mxCell>
                <mxCell id="128" value="Famille" style="swimlane;whiteSpace=wrap;html=1;fontSize=12;" parent="1" vertex="1">
                    <mxGeometry x="20" y="1500" width="170" height="130" as="geometry"/>
                </mxCell>
                <mxCell id="129" value="&lt;u&gt;id_famille&lt;/u&gt;" style="text;html=1;align=center;verticalAlign=middle;resizable=0;points=[];autosize=1;strokeColor=none;fillColor=none;fontSize=12;" parent="128" vertex="1">
                    <mxGeometry x="45" y="30" width="70" height="30" as="geometry"/>
                </mxCell>
                <mxCell id="130" value="nom_famille" style="text;html=1;align=center;verticalAlign=middle;resizable=0;points=[];autosize=1;strokeColor=none;fillColor=none;fontSize=12;" parent="128" vertex="1">
                    <mxGeometry x="40" y="60" width="90" height="30" as="geometry"/>
                </mxCell>
                <mxCell id="198" value="#id_genre" style="text;html=1;align=center;verticalAlign=middle;resizable=0;points=[];autosize=1;strokeColor=none;fillColor=none;" vertex="1" parent="128">
                    <mxGeometry x="45" y="100" width="80" height="30" as="geometry"/>
                </mxCell>
                <mxCell id="131" value="Ordre" style="swimlane;whiteSpace=wrap;html=1;fontSize=12;" parent="1" vertex="1">
                    <mxGeometry x="280" y="1405" width="150" height="110" as="geometry"/>
                </mxCell>
                <mxCell id="132" value="nom_ordre" style="text;html=1;align=center;verticalAlign=middle;resizable=0;points=[];autosize=1;strokeColor=none;fillColor=none;fontSize=12;" parent="131" vertex="1">
                    <mxGeometry x="30" y="60" width="80" height="30" as="geometry"/>
                </mxCell>
                <mxCell id="159" value="&lt;u&gt;id_ordre&lt;/u&gt;" style="text;html=1;align=center;verticalAlign=middle;resizable=0;points=[];autosize=1;strokeColor=none;fillColor=none;fontSize=12;" parent="131" vertex="1">
                    <mxGeometry x="35" y="30" width="70" height="30" as="geometry"/>
                </mxCell>
                <mxCell id="133" value="Animal" style="swimlane;whiteSpace=wrap;html=1;fontSize=12;" parent="1" vertex="1">
                    <mxGeometry x="615" y="1345" width="160" height="230" as="geometry"/>
                </mxCell>
                <mxCell id="134" value="date_depart" style="text;html=1;align=center;verticalAlign=middle;resizable=0;points=[];autosize=1;strokeColor=none;fillColor=none;fontSize=12;" parent="133" vertex="1">
                    <mxGeometry x="35" y="90" width="90" height="30" as="geometry"/>
                </mxCell>
                <mxCell id="135" value="&lt;u&gt;id_animal&lt;/u&gt;" style="text;html=1;align=center;verticalAlign=middle;resizable=0;points=[];autosize=1;strokeColor=none;fillColor=none;fontSize=12;" parent="133" vertex="1">
                    <mxGeometry x="40" y="35" width="70" height="30" as="geometry"/>
                </mxCell>
                <mxCell id="136" value="&lt;font style=&quot;font-size: 12px;&quot;&gt;nom_animal&lt;/font&gt;" style="text;html=1;align=center;verticalAlign=middle;resizable=0;points=[];autosize=1;strokeColor=none;fillColor=none;fontSize=10;" parent="133" vertex="1">
                    <mxGeometry x="35" y="60" width="90" height="30" as="geometry"/>
                </mxCell>
                <mxCell id="137" value="date_arrivee" style="text;html=1;align=center;verticalAlign=middle;resizable=0;points=[];autosize=1;strokeColor=none;fillColor=none;fontSize=12;" parent="133" vertex="1">
                    <mxGeometry x="35" y="120" width="90" height="30" as="geometry"/>
                </mxCell>
                <mxCell id="175" value="#id_bassin" style="text;html=1;align=center;verticalAlign=middle;resizable=0;points=[];autosize=1;strokeColor=none;fillColor=none;fontSize=12;" parent="133" vertex="1">
                    <mxGeometry x="40" y="150" width="80" height="30" as="geometry"/>
                </mxCell>
                <mxCell id="177" value="#id_ordre" style="text;html=1;align=center;verticalAlign=middle;resizable=0;points=[];autosize=1;strokeColor=none;fillColor=none;fontSize=12;" parent="133" vertex="1">
                    <mxGeometry x="45" y="180" width="70" height="30" as="geometry"/>
                </mxCell>
                <mxCell id="166" value="espece" style="swimlane;whiteSpace=wrap;html=1;fontSize=14;" parent="1" vertex="1">
                    <mxGeometry x="300" y="1790" width="160" height="100" as="geometry"/>
                </mxCell>
                <mxCell id="167" value="&lt;u&gt;id_espece&lt;/u&gt;" style="text;html=1;align=center;verticalAlign=middle;resizable=0;points=[];autosize=1;strokeColor=none;fillColor=none;fontSize=12;" parent="166" vertex="1">
                    <mxGeometry x="40" y="30" width="80" height="30" as="geometry"/>
                </mxCell>
                <mxCell id="168" value="nom_espece" style="text;html=1;align=center;verticalAlign=middle;resizable=0;points=[];autosize=1;strokeColor=none;fillColor=none;fontSize=12;" parent="166" vertex="1">
                    <mxGeometry x="35" y="60" width="90" height="30" as="geometry"/>
                </mxCell>
                <mxCell id="173" value="" style="endArrow=classic;html=1;fontSize=12;exitX=1;exitY=0.5;exitDx=0;exitDy=0;entryX=0;entryY=0.5;entryDx=0;entryDy=0;" parent="1" source="115" target="112" edge="1">
                    <mxGeometry width="50" height="50" relative="1" as="geometry">
                        <mxPoint x="390" y="1370" as="sourcePoint"/>
                        <mxPoint x="440" y="1320" as="targetPoint"/>
                    </mxGeometry>
                </mxCell>
                <mxCell id="174" value="" style="edgeStyle=segmentEdgeStyle;endArrow=classic;html=1;curved=0;rounded=0;endSize=8;startSize=8;fontSize=12;exitX=1;exitY=0.5;exitDx=0;exitDy=0;entryX=0.5;entryY=0;entryDx=0;entryDy=0;" parent="1" source="112" target="133" edge="1">
                    <mxGeometry width="50" height="50" relative="1" as="geometry">
                        <mxPoint x="390" y="1370" as="sourcePoint"/>
                        <mxPoint x="440" y="1320" as="targetPoint"/>
                    </mxGeometry>
                </mxCell>
                <mxCell id="182" value="" style="endArrow=classic;html=1;fontSize=14;entryX=0.5;entryY=0;entryDx=0;entryDy=0;exitX=0.5;exitY=1;exitDx=0;exitDy=0;" parent="1" source="133" target="124" edge="1">
                    <mxGeometry width="50" height="50" relative="1" as="geometry">
                        <mxPoint x="410" y="1720" as="sourcePoint"/>
                        <mxPoint x="460" y="1670" as="targetPoint"/>
                    </mxGeometry>
                </mxCell>
                <mxCell id="187" value="" style="endArrow=none;html=1;exitX=1;exitY=0.75;exitDx=0;exitDy=0;entryX=0;entryY=0;entryDx=0;entryDy=0;" edge="1" parent="1" source="35" target="44">
                    <mxGeometry width="50" height="50" relative="1" as="geometry">
                        <mxPoint x="400" y="750" as="sourcePoint"/>
                        <mxPoint x="450" y="700" as="targetPoint"/>
                    </mxGeometry>
                </mxCell>
                <mxCell id="188" value="1,1" style="text;html=1;align=center;verticalAlign=middle;resizable=0;points=[];autosize=1;strokeColor=none;fillColor=none;fontSize=10;" vertex="1" parent="1">
                    <mxGeometry x="250" y="655" width="40" height="30" as="geometry"/>
                </mxCell>
                <mxCell id="189" value="" style="endArrow=none;html=1;entryX=0;entryY=0;entryDx=0;entryDy=0;" edge="1" parent="1" target="45">
                    <mxGeometry width="50" height="50" relative="1" as="geometry">
                        <mxPoint x="270" y="820" as="sourcePoint"/>
                        <mxPoint x="450" y="890" as="targetPoint"/>
                    </mxGeometry>
                </mxCell>
                <mxCell id="190" value="1,1" style="text;html=1;align=center;verticalAlign=middle;resizable=0;points=[];autosize=1;strokeColor=none;fillColor=none;fontSize=10;" vertex="1" parent="1">
                    <mxGeometry x="265" y="920" width="40" height="30" as="geometry"/>
                </mxCell>
                <mxCell id="191" value="1,N" style="text;html=1;align=center;verticalAlign=middle;resizable=0;points=[];autosize=1;strokeColor=none;fillColor=none;fontSize=10;" vertex="1" parent="1">
                    <mxGeometry x="345" y="970" width="40" height="30" as="geometry"/>
                </mxCell>
                <mxCell id="192" value="" style="endArrow=classic;html=1;entryX=0;entryY=0.5;entryDx=0;entryDy=0;exitX=1;exitY=0.5;exitDx=0;exitDy=0;" edge="1" parent="1" source="131" target="133">
                    <mxGeometry width="50" height="50" relative="1" as="geometry">
                        <mxPoint x="400" y="1540" as="sourcePoint"/>
                        <mxPoint x="450" y="1490" as="targetPoint"/>
                    </mxGeometry>
                </mxCell>
                <mxCell id="193" value="" style="edgeStyle=segmentEdgeStyle;endArrow=classic;html=1;curved=0;rounded=0;endSize=8;startSize=8;exitX=1;exitY=0.5;exitDx=0;exitDy=0;" edge="1" parent="1" source="128">
                    <mxGeometry width="50" height="50" relative="1" as="geometry">
                        <mxPoint x="310" y="1565" as="sourcePoint"/>
                        <mxPoint x="360" y="1515" as="targetPoint"/>
                    </mxGeometry>
                </mxCell>
                <mxCell id="194" value="" style="edgeStyle=segmentEdgeStyle;endArrow=classic;html=1;curved=0;rounded=0;endSize=8;startSize=8;entryX=0.5;entryY=1;entryDx=0;entryDy=0;exitX=0;exitY=0.5;exitDx=0;exitDy=0;" edge="1" parent="1" source="118" target="128">
                    <mxGeometry width="50" height="50" relative="1" as="geometry">
                        <mxPoint x="420" y="1650" as="sourcePoint"/>
                        <mxPoint x="470" y="1600" as="targetPoint"/>
                    </mxGeometry>
                </mxCell>
                <mxCell id="195" value="" style="edgeStyle=segmentEdgeStyle;endArrow=classic;html=1;curved=0;rounded=0;endSize=8;startSize=8;entryX=0.5;entryY=1;entryDx=0;entryDy=0;exitX=0;exitY=0.5;exitDx=0;exitDy=0;" edge="1" parent="1" source="166" target="118">
                    <mxGeometry width="50" height="50" relative="1" as="geometry">
                        <mxPoint x="420" y="1870" as="sourcePoint"/>
                        <mxPoint x="470" y="1820" as="targetPoint"/>
                    </mxGeometry>
                </mxCell>
            </root>
        </mxGraphModel>
    </diagram>
</mxfile>